<svg xmlns="http://www.w3.org/2000/svg" viewBox="0 0 1024 1024" width="1024" height="1024"><title>file pdf</title><g class="nc-icon-wrapper"><path d="M841.73 589.82c-13.31-13.31-44.03-20.48-90.11-21.5-30.72 0-68.61 2.05-107.52 8.19-17.41-10.24-35.84-21.5-50.18-34.81-38.91-35.84-70.66-86.02-91.14-140.29 2.05-5.12 3.07-10.24 4.1-14.34 0 0 21.5-123.9 15.36-164.86 0-6.14-1.02-7.17-2.05-12.29l-2.05-4.1c-6.14-14.34-17.41-28.67-35.84-27.64h-11.26c-19.46 0-36.86 10.24-40.96 25.6-13.31 48.13 1.02 120.83 25.6 215.04l-6.14 15.36a2335.87 2335.87 0 0 1-59.4 123.9l-3.07 5.12a2567.94 2567.94 0 0 1-55.29 102.4l-17.41 9.22c-1.02 1.02-30.72 16.38-37.89 20.48-59.39 35.84-98.3 75.78-105.47 107.52-2.05 10.24 0 23.55 10.24 29.69l16.38 8.19c7.17 3.07 15.36 5.12 23.55 5.12 41.98 0 91.14-52.22 158.72-169.98 77.82-25.6 165.89-47.1 243.72-58.37 59.39 33.79 132.1 56.32 178.17 56.32 8.19 0 15.36 0 21.51-2.05 8.19-2.05 16.38-7.17 20.48-14.33 9.22-13.31 11.26-31.74 8.19-51.2a31.68 31.68 0 0 0-10.24-16.39z m-629.76 224.26c7.17-21.5 37.89-62.46 82.94-99.33 3.07-3.07 10.24-9.22 16.39-15.36-47.1 75.78-78.85 105.47-99.33 114.69z m266.24-614.4c14.34 0 21.5 33.79 22.53 66.56s-7.17 54.27-16.39 70.66c-8.19-24.58-11.26-63.49-11.26-89.09 0 0-1.02-48.13 5.12-48.13z m-78.85 438.27c9.22-17.41 18.43-34.82 28.67-54.27a942.18 942.18 0 0 0 51.2-112.64c23.55 41.98 52.22 77.82 84.99 105.47 4.1 4.1 9.22 7.17 13.32 11.27-67.58 13.31-126.98 29.7-179.2 50.17z m430.08-4.09c-5.12 2.05-16.38 4.1-24.58 4.09-24.58 0-55.3-11.26-97.28-29.69 16.38-1.02 30.72-2.05 45.06-2.05 24.58 0 31.74 0 56.32 6.14s24.58 18.43 20.48 21.51z m88.06-404.48c-21.5-30.72-53.25-66.56-87.04-100.36s-69.63-64.51-99.32-87.04c-52.22-37.89-76.8-41.98-91.14-41.98h-495.62a80 80 0 0 0-79.87 79.87v864.26a80 80 0 0 0 79.87 79.87h735.24c44.03 0 80.9-35.84 80.89-79.87v-624.64c0-14.34-5.12-38.91-43.01-90.11z m-132.09-54.28c30.72 30.72 54.27 58.37 72.7 80.9h-154.62v-153.6c23.55 17.41 51.2 41.98 81.92 72.7z m110.59 769.03a16.83 16.83 0 0 1-16.38 16.38h-735.24a16.83 16.83 0 0 1-16.38-16.38v-864.26c0-8.19 7.17-16.38 16.38-16.38h495.62v224.25c0 17.41 14.34 31.74 31.74 31.75h224.26v624.64z"/></g></svg>