<svg xmlns="http://www.w3.org/2000/svg" viewBox="0 0 1024 1024" width="1024" height="1024"><title>link</title><g class="nc-icon-wrapper"><path d="M520.19 441.34c16.38 16.38 31.74 30.72 47.11 45.06 2.05 3.07 5.12 4.1 8.19 7.17 40.96-39.94 88.06-57.34 144.38-52.23 43.01 3.07 78.85 20.48 109.57 50.18a8033.92 8033.92 0 0 1 131.07 133.12c68.61 71.68 67.58 177.15 0 248.83a2808.83 2808.83 0 0 1-95.23 96.26c-72.7 68.61-179.2 67.58-249.86-3.07-39.94-40.96-80.9-80.9-120.83-121.86-74.75-76.8-78.85-175.1-10.24-259.07 2.05-2.05 3.07-4.1 4.1-6.15l-53.25-53.24c-25.6 23.55-54.27 41.98-90.11 49.15-59.39 10.24-113.66 0-157.7-43.01a3648.64 3648.64 0 0 1-140.29-141.31c-65.54-69.63-63.49-177.15 3.08-245.76a4265.6 4265.6 0 0 1 96.25-96.26c68.61-66.56 176.13-66.56 245.76 0a14966.66 14966.66 0 0 1 126.98 129.03c70.66 72.7 74.75 173.06 10.24 250.88a122.5 122.5 0 0 1-9.22 12.28z m-83.97-88.06c25.6-26.62 28.67-58.37 5.12-82.94a4111.78 4111.78 0 0 0-132.09-135.17c-23.55-22.53-57.34-21.5-80.9 1.02-32.77 30.72-63.49 62.46-94.21 94.21-21.5 22.53-22.53 56.32-1.02 77.82a8411.87 8411.87 0 0 0 134.14 136.2c23.55 22.53 59.39 19.46 80.9-3.08-12.29-18.43-28.67-33.79-36.86-53.24-9.22-22.53-3.07-45.06 15.36-62.47 27.65-25.6 52.22-20.48 109.56 27.65z m140.29 313.34c-27.65 23.55-30.72 57.34-7.17 83.97a5390.4 5390.4 0 0 0 132.1 133.12c22.53 21.5 57.34 21.5 80.9 0 31.74-30.72 63.49-62.46 94.2-94.21 21.5-23.55 22.53-55.3 1.03-77.82a2911.68 2911.68 0 0 0-137.22-138.24c-22.53-22.53-59.39-17.41-77.82 6.14 12.29 16.38 28.67 31.74 36.86 51.2 9.22 20.48 5.12 44.03-13.31 60.42-10.24 8.19-23.55 15.36-36.86 17.41-33.79 5.12-52.22-22.53-72.71-41.99z"/></g></svg>