<?xml version="1.0" encoding="UTF-8" standalone="no"?>
<svg
   xmlns="http://www.w3.org/2000/svg"
   viewBox="0 0 1000 1000"
   width="1000"
   height="1000"
>
<path
   d="M 818.87695,0.19726562 C 804.85418,0.28466518 790.81892,0.55744461 776.7832,0.81640625 714.63241,2.0594221 655.38311,16.145977 599.24023,43.285156 530.87436,76.639415 475.97428,125.73772 429.56836,185.19531 c -16.36638,20.9241 -31.28415,42.88563 -47.44336,65.05274 h -10.97852 c -60.28627,0 -120.5731,-0.20731 -180.85937,0.20703 -41.64103,0.41434 -72.71595,19.47361 -91.56836,56.14258 C 67.021845,367.91977 36.360001,429.86301 6.1132812,491.80664 1.969895,500.50775 -0.30886987,510.86669 0.10546875,520.39648 1.5556539,546.70699 21.236669,562.8651 50.033203,563.07227 c 54.278357,0.20717 108.350547,0 162.628907,0 h 14.91601 c -7.66527,15.12336 -14.08779,27.76152 -20.0957,39.77734 -12.22299,26.3105 -7.87304,54.07018 12.63672,74.78711 33.7686,34.18294 67.95198,67.95182 101.92774,102.13476 14.29469,14.50185 31.28334,22.16795 51.58593,19.26758 9.11545,-1.24302 18.23053,-4.76509 26.93164,-8.49414 12.01582,-5.17923 23.61602,-11.39415 37.08203,-17.8164 v 16.1582 c 0,53.44968 1.24329,106.89993 -0.41406,160.34961 -1.03585,38.11916 35.01198,64.22197 72.7168,44.74805 60.0791,-30.86823 120.5731,-60.49352 180.85937,-90.74024 38.94783,-19.68109 58.83594,-51.16981 58.83594,-95.29687 V 630.40234 620.25195 c 33.7686,-26.72484 66.29444,-50.13481 96.33399,-76.44531 60.90778,-53.24252 106.27794,-117.46607 131.75976,-194.74023 14.29468,-43.71272 21.13017,-88.8756 22.16602,-134.86719 1.4502,-58.42174 0.2076,-116.842618 -12.42969,-174.228517 C 984.1599,25.054513 974.83793,16.146879 960.12891,12.625 954.94968,11.381984 949.56204,10.760455 944.38281,9.7246094 902.89716,1.3342523 860.94527,-0.06493303 818.87695,0.19726562 Z M 794.06641,93.167969 c 11.33281,-0.226592 22.70139,-0.110593 34.0957,0.251953 24.44598,0.621508 48.68364,2.071437 74.99414,3.314453 1.45018,16.780715 2.89997,31.490195 3.52148,46.199215 2.07169,54.27836 2.2792,108.34943 -12.22265,161.38477 -18.85241,68.98738 -58.42029,124.09534 -110.62696,171.53711 -44.95573,41.22669 -96.95587,70.85161 -151.4414,97.16211 -83.28206,40.19084 -165.94269,82.03906 -249.01758,123.05859 -2.6932,1.45018 -5.59473,2.69295 -7.04492,3.31445 -25.06748,-25.06748 -49.51231,-49.51441 -74.99414,-74.78906 10.56564,-21.54561 21.9592,-44.7482 33.35351,-67.95117 41.01953,-83.07489 78.93266,-168.01465 124.30274,-248.60351 53.03534,-94.26205 125.5447,-169.87773 234.30859,-200.95313 33.0953,-9.477996 66.77306,-13.246007 100.77149,-13.925781 z M 719.39844,200.73438 a 81.003197,81.003197 0 0 0 -81.00391,81.00195 81.003197,81.003197 0 0 0 81.00391,81.0039 81.003197,81.003197 0 0 0 81.00195,-81.0039 81.003197,81.003197 0 0 0 -81.00195,-81.00195 z" />
</svg>
