<?xml version="1.0" encoding="UTF-8" standalone="no"?>
<svg
   xmlns="http://www.w3.org/2000/svg"
   viewBox="0 0 1000 1000"
   width="1000"
   height="1000"
>
<path
   d="M 625.04026,60.000288 C 504.25592,59.750217 406.72624,157.27697 406.72624,277.81123 c 0.25007,121.28449 96.77752,218.06493 217.56186,218.06493 121.03441,0 217.81095,-97.03051 217.81095,-218.06493 0,-120.28419 -97.27474,-217.810942 -217.05879,-217.810942 z M 185.91151,185.788 C 117.6421,185.53793 61.877228,241.05176 61.877228,308.82103 c 0,68.51948 56.265022,125.28562 124.034282,125.03555 67.76927,-0.25007 124.03917,-56.266 124.03917,-123.7852 0,-69.01961 -55.01954,-124.28338 -124.03917,-124.28338 z m 2.91099,313.39965 c -23.66298,0 -47.29665,0.0605 -70.92837,0.18555 -7.75221,0 -15.25336,1.00419 -22.755493,2.75469 -55.015641,12.25348 -94.77694575,61.76561 -95.02701687,118.0316 0,22.25633 -0.25007107,44.26161 0,66.51794 0.25007109,31.75903 23.25758887,58.01552 54.76654587,59.0158 41.511802,1.25036 83.269764,0.50112 124.781574,1.00126 8.50241,0 9.75375,-5.25052 11.0041,-11.50229 13.25377,-73.02076 49.51702,-131.78845 108.03364,-177.30138 10.75306,-8.25235 22.25438,-15.75351 34.25779,-24.00585 -14.7542,-18.25519 -47.51156,-34.01162 -73.01881,-34.51177 -23.75674,-0.12503 -47.45099,-0.18555 -71.11396,-0.18555 z m 589.6354,62.73756 c -15.50441,0.46889 -31.13287,3.59575 -47.13742,10.22263 -69.01963,28.50811 -140.29086,28.00699 -209.81063,1.49945 -25.50725,-9.5027 -49.5131,-13.25279 -76.52078,-10.25194 -84.7741,9.75278 -164.04664,77.52204 -186.30297,160.04551 -11.25318,42.01194 -9.25456,84.7702 -8.25429,127.28228 0.25007,17.50498 7.75123,33.76253 19.00443,48.01658 20.7559,26.25746 48.51379,36.5094 81.2731,36.5094 H 624.2881 c 91.77609,0 183.30308,0.24908 274.82911,0.24908 53.76528,-0.25008 94.5259,-32.51022 99.02717,-83.52473 3.00082,-34.25974 3.25292,-70.0199 -2.9989,-103.7795 -17.50497,-95.77723 -76.02551,-156.29249 -170.30232,-180.54938 -15.5044,-4.00114 -30.88085,-6.18829 -46.38526,-5.7194 z" />
</svg>
