<?xml version="1.0" encoding="UTF-8" standalone="no"?>
<svg
   xmlns="http://www.w3.org/2000/svg"
   viewBox="0 0 1000 1000"
 width="1000" height="1000"><path
     d="M 494.80273,5.0039062 C 232.31372,6.0302839 4.368125,219.09727 4.8046875,501.02734 c 0.431,277.881 225.2406425,492.02899 491.3066425,493.95899 271.346,1.968 499.13598,-215.66 499.08398,-495.875 C 995.14431,220.71833 767.54577,3.6145312 501.00977,5.0195312 498.93873,5.00125 496.86958,4.9958245 494.80273,5.0039062 Z m 15.53516,92.6269528 c 3.33384,-0.02466 6.63741,0.08669 9.81641,0.273438 45.315,2.661003 89.66415,11.210483 131.41015,29.646483 135.961,60.042 219.10585,162.5397 245.21485,309.4707 10.954,61.645 5.335,122.61914 -13.125,182.49414 -2.664,8.64001 -6.72102,12.34538 -15.66602,11.48438 -5.801,-0.558 -11.73778,-0.52148 -17.55078,-0.0215 -18.198,1.564 -32.19325,-5.47716 -44.40625,-18.78516 -16.621,-18.111 -34.31808,-35.23109 -51.45508,-52.87109 -15.396,-15.847 -15.21531,-28.56157 0.42969,-44.35157 3.847,-3.883 7.74851,-7.71093 11.60352,-11.58593 11.95399,-12.015 12.35715,-28.72404 0.78515,-41.45704 -4.722,-5.196 -9.21923,-11.00965 -14.99023,-14.72265 -6.185,-3.979 -13.53967,-7.04458 -20.76368,-8.26758 -8.354,-1.415 -17.14207,-0.0268 -25.70507,-0.50781 -11.229,-0.631 -20.49971,-5.04778 -24.97071,-16.17578 -4.346,-10.815 -0.45481,-19.77705 7.11719,-27.62305 4.338,-4.495 8.88311,-8.78989 13.16211,-13.33789 6.825,-7.253 14.84797,-10.48103 25.04297,-10.08203 15.982,0.625 32.00572,0.18678 48.01172,0.17578 25.742,-0.018 32.23647,-6.60186 32.10547,-32.63086 -0.022,-4.289 0.44028,-8.77917 -0.63672,-12.82617 -2.715,-10.206 -9.85355,-15.65933 -20.43555,-15.86133 -12.488,-0.238 -24.98456,-0.0547 -37.47656,-0.0547 v -0.0449 c -9.76,0 -19.5193,-0.0261 -29.2793,0.004 -23.591,0.074 -36.22175,9.75259 -36.46875,32.93359 -0.26,24.402 -12.35954,36.06541 -33.93554,42.19141 -15.36001,4.362 -30.23771,10.42497 -45.59571,14.79296 -10.94,3.11101 -16.68256,9.65335 -17.22656,20.65235 -0.514,10.398 -6.32081,16.11942 -15.88281,16.98242 -11.206,1.011 -22.61636,1.23503 -33.81836,0.33203 -8.812,-0.71 -14.77006,-6.27414 -16.53906,-15.61914 -1.628,-8.597 -5.18608,-15.36412 -15.45508,-16.20312 -10.42,-0.852 -16.96035,3.6354 -21.27735,12.8164 -4.973,10.575 -10.17198,21.06156 -15.70898,31.35156 -6.836,12.706 -17.30875,19.59283 -32.21875,19.29883 -14.438,-0.284 -28.88908,0.11472 -43.33008,-0.11328 -17.748,-0.281 -31.9885,-13.79411 -32.5625,-31.66211 -0.576,-17.943 -1.49227,-36.06536 0.42774,-53.81836 0.959,-8.865 6.53793,-18.22793 12.46093,-25.33593 10.206,-12.248 22.21125,-23.01804 33.65625,-34.20704 9.844,-9.624 16.3368,-20.60464 16.8418,-34.80664 0.38,-10.694 6.71481,-16.896 16.63281,-20.125 22.577,-7.35 45.1081,-14.84271 67.6211,-22.38671 4.411,-1.478 9.70659,-2.36419 12.80859,-5.36719 19.902,-19.265 40.13541,-38.30269 58.56641,-58.92969 11.32,-12.67 2.08968,-31.2222 -14.94532,-32.2832 -12.057,-0.75 -24.21129,-0.66432 -36.27929,-0.0703 -3.821,0.188 -8.1071,2.51366 -11.1211,5.09766 -6.205,5.32 -11.38036,11.83864 -17.56836,17.18164 -6.426,5.55 -9.01437,11.79197 -8.73437,20.41797 0.433,13.303 -6.437,19.99228 -19.875,20.61328 -8.57,0.396 -17.17877,0.28883 -25.75977,0.0488 -13.293,-0.372 -20.45459,-6.72783 -21.18359,-19.92383 -0.667,-12.066 -1.48566,-24.41575 0.40234,-36.21875 1.1,-6.872 6.11085,-14.43815 11.58985,-19.03516 15.211,-12.76299 30.52643,-26.15345 47.89843,-35.31445 8.0595,-4.250248 18.34027,-5.558842 28.3418,-5.632811 z M 337.49805,210.19727 c 10.73551,-0.2157 20.7035,8.12982 23.42187,21.49414 6.051,29.747 -0.49851,55.47715 -27.47851,72.03515 -8.668,5.32 -20.28283,5.84064 -30.54883,8.55664 -0.201,-0.799 -0.40252,-1.59748 -0.60352,-2.39648 -5.46,0 -10.95604,0.40278 -16.37304,-0.0742 -19.83,-1.742 -31.00264,-23.47336 -18.18164,-38.31836 17.01299,-19.699 35.57085,-38.33828 55.25585,-55.36328 4.58875,-3.96906 9.62804,-5.83555 14.50782,-5.93359 z m 173.08984,319.57226 c 16.91188,-0.0829 33.7443,1.31664 50.2793,6.05664 13.736,3.938 27.10578,11.97917 38.42578,20.95117 25.052,19.854 48.41058,41.83038 73.14258,62.10938 5.456,4.474 13.5662,6.38794 20.7832,7.83594 6.377,1.279 13.21466,0.33895 19.84766,0.25195 20.513,-0.269 38.086,6.7758 52.75,21.0918 4.189,4.089 8.63081,7.98131 12.38281,12.44531 17.013,20.244 36.13469,35.71023 65.05469,30.61523 1.415,-0.249 3.05057,0.45974 4.51757,0.92774 0.672,0.215 1.18425,0.93008 4.65625,3.83008 -14.588,20.464 -27.738,41.7234 -43.625,60.6914 -62.122,74.18 -141.24551,120.14842 -236.22851,138.48242 -14.11,2.724 -28.56742,3.6315 -42.85742,5.4375 -7.652,0.967 -11.22013,-1.56343 -11.70313,-10.02343 -1.565,-27.406 -10.11586,-35.36941 -38.13086,-35.06641 -29.011,0.313 -59.07137,1.56698 -84.10937,-14.16602 -28.788,-18.09 -55.97517,-39.29428 -81.45117,-61.86328 -13.97,-12.376 -19.37479,-31.65047 -19.30079,-51.23047 0.08,-21.032 -1.09798,-42.14921 0.41602,-63.07421 2.066,-28.559 16.31786,-51.33968 40.25586,-66.63868 29.88,-19.096 60.48128,-37.12154 91.36328,-54.56054 9.95,-5.618 21.59148,-10.46777 32.77148,-11.25977 16.8565,-1.1945 33.8479,-2.76087 50.75977,-2.84375 z"
/></svg>