<?xml version="1.0" encoding="UTF-8" standalone="no"?>
<svg
   xmlns="http://www.w3.org/2000/svg"
   height="1000"
   width="1000"
   viewBox="0 0 1000 1000"
><path
     d="M 490.57227,0.765625 C 322.83868,3.0682303 183.08965,138.9511 176.36523,306.56445 c -2.41061,60.05928 11.80226,116.61157 38.40039,165.44922 L 495.05469,999.23438 775.3457,472.01172 C 801.94181,423.17611 816.15466,366.6217 813.74609,306.56445 807.02167,138.9511 667.27061,3.0682303 499.53906,0.765625 c -1.50382,-0.0203771 -2.98462,0.0546875 -4.48437,0.0546875 -1.49772,0 -2.9786,-0.0730269 -4.48242,-0.0546875 z m 4.48242,91.925781 c 125.36768,0 226.99804,101.630364 226.99804,226.998044 0,125.36769 -101.63036,226.99805 -226.99804,226.99805 -125.36768,0 -226.99805,-101.63036 -226.99805,-226.99805 0,-125.36564 101.63037,-226.998044 226.99805,-226.998044 z"
     /></svg>