<?xml version="1.0" encoding="UTF-8"?>
<svg xmlns="http://www.w3.org/2000/svg" viewBox="0 0 1000 1000">
  <path d="M370.71,450l43.82-43.82c48.5-48.5,85.45-137.65,85.47-206.18h100v-100h-250V0h-100v100H0v100h400c-.02,42.01-26.43,105.72-56.18,135.47l-43.82,43.82-43.82-43.82c-9.15-9.15-17.99-21.52-25.83-35.47h-110c15.46,40.88,38.56,79.62,65.12,106.18l43.82,43.82-164.64,164.64,70.71,70.71,164.64-164.64,140.97,140.97,41.59-99.83-111.85-111.85h0Z"/>
  <path d="M750,400h-100l-250,600h100l62.5-150h275l62.5,150h100l-250-600ZM604.17,750l95.83-230,95.83,230h-191.67Z"/>
</svg>