<?xml version="1.0" encoding="UTF-8" standalone="no"?>
<svg
   xmlns="http://www.w3.org/2000/svg"
   height="1024"
   width="1024"
   viewBox="0 0 1024 1024">
  <path
     d="M 508.83789,-0.0703125 C 372.44032,1.6387647 257.3701,115.60768 256.00391,252.04102 254.6066,391.56049 370.36184,509.94229 508.87109,510.65039 648.71624,511.36321 765.16165,396.52684 766.3418,256.73828 767.5031,119.18733 652.78528,1.8171418 515.34766,-0.06640625 c -2.17542,-0.02979924 -4.34473,-0.03103446 -6.50977,-0.0039063 z M 329.9043,575.09766 C 240.1339,575.5231 144.52092,632.9933 100.66602,710.45703 64.444293,774.44574 61.956665,843.27297 63.509766,913.6582 c 1.586146,71.8864 38.256484,109.1506 110.265624,109.3301 112.47945,0.2785 224.9631,0.076 337.44727,0.066 114.8492,-0.01 229.70349,0.3536 344.55273,-0.1797 54.64651,-0.2455 98.62889,-31.47104 99.9082,-80.89648 1.57198,-60.84948 2.1766,-124.70645 -14.00586,-182.43555 C 903.14761,622.10531 753.60156,549.92051 617.29688,589.91406 c -42.21698,12.38704 -88.67847,17.29216 -132.59961,14.85156 -42.75983,-2.37922 -84.26795,-22.18267 -127.1836,-27.92773 -9.09777,-1.21793 -18.32278,-1.78424 -27.60937,-1.74023 z"
 />
</svg>
